<svg xmlns="http://www.w3.org/2000/svg" viewBox="0 0 600 300">
  <rect width="600" height="300" fill="#2D3E36"/>
  <rect x="180" y="60" width="240" height="180" rx="12" fill="#fff" opacity="0.1"/>
  <rect x="200" y="90" width="80" height="10" rx="5" fill="#fff" opacity="0.3"/>
  <rect x="200" y="110" width="200" height="8" rx="4" fill="#fff" opacity="0.15"/>
  <rect x="200" y="126" width="160" height="8" rx="4" fill="#fff" opacity="0.15"/>
  <rect x="200" y="150" width="180" height="30" rx="6" fill="#1A5C3A"/>
  <rect x="200" y="150" width="120" height="30" rx="6" fill="#2E7D52"/>
  <rect x="200" y="192" width="140" height="30" rx="6" fill="#1A5C3A"/>
  <rect x="200" y="192" width="90" height="30" rx="6" fill="#2E7D52"/>
  <circle cx="160" cy="100" r="30" fill="#fff" opacity="0.08"/>
  <circle cx="160" cy="92" r="10" fill="#fff" opacity="0.2"/>
  <path d="M148 108c0-6.6 5.4-12 12-12s12 5.4 12 12" fill="none" stroke="#fff" stroke-width="2" opacity="0.2"/>
</svg>
