<svg xmlns="http://www.w3.org/2000/svg" viewBox="0 0 600 300">
  <rect width="600" height="300" fill="#2A3540"/>
  <rect x="150" y="40" width="300" height="220" rx="10" fill="#fff" opacity="0.08"/>
  <rect x="150" y="40" width="300" height="60" rx="10" fill="#fff" opacity="0.04"/>
  <circle cx="200" cy="70" r="18" fill="#fff" opacity="0.1"/>
  <circle cx="200" cy="65" r="7" fill="#fff" opacity="0.2"/>
  <path d="M190 78c0-5.5 4.5-10 10-10s10 4.5 10 10" fill="none" stroke="#fff" stroke-width="1.5" opacity="0.2"/>
  <rect x="230" y="60" width="100" height="8" rx="4" fill="#fff" opacity="0.25"/>
  <rect x="230" y="74" width="70" height="6" rx="3" fill="#fff" opacity="0.12"/>
  <rect x="175" y="120" width="250" height="6" rx="3" fill="#fff" opacity="0.1"/>
  <rect x="175" y="136" width="220" height="6" rx="3" fill="#fff" opacity="0.1"/>
  <rect x="175" y="152" width="200" height="6" rx="3" fill="#fff" opacity="0.1"/>
  <rect x="175" y="180" width="60" height="28" rx="6" fill="#0A66C2" opacity="0.4"/>
  <rect x="245" y="180" width="60" height="28" rx="6" fill="#1A5C3A" opacity="0.4"/>
  <rect x="315" y="180" width="60" height="28" rx="6" fill="#D4A017" opacity="0.4"/>
  <rect x="175" y="220" width="120" height="24" rx="12" fill="#1A5C3A" opacity="0.5"/>
</svg>
