<svg xmlns="http://www.w3.org/2000/svg" viewBox="0 0 600 300">
  <rect width="600" height="300" fill="#3D2E1E"/>
  <rect x="160" y="40" width="180" height="220" rx="8" fill="#fff" opacity="0.1"/>
  <rect x="180" y="65" width="140" height="8" rx="4" fill="#fff" opacity="0.25"/>
  <rect x="180" y="85" width="120" height="6" rx="3" fill="#fff" opacity="0.12"/>
  <rect x="180" y="100" width="130" height="6" rx="3" fill="#fff" opacity="0.12"/>
  <rect x="180" y="115" width="100" height="6" rx="3" fill="#fff" opacity="0.12"/>
  <line x1="180" y1="135" x2="320" y2="135" stroke="#fff" stroke-width="1" opacity="0.08"/>
  <rect x="180" y="148" width="140" height="6" rx="3" fill="#fff" opacity="0.1"/>
  <rect x="180" y="163" width="120" height="6" rx="3" fill="#fff" opacity="0.1"/>
  <rect x="180" y="178" width="110" height="6" rx="3" fill="#fff" opacity="0.1"/>
  <rect x="180" y="200" width="80" height="6" rx="3" fill="#D4A017" opacity="0.4"/>
  <rect x="180" y="220" width="90" height="22" rx="4" fill="#1A5C3A" opacity="0.4"/>
  <rect x="370" y="70" width="120" height="160" rx="8" fill="#fff" opacity="0.07"/>
  <rect x="388" y="92" width="84" height="6" rx="3" fill="#fff" opacity="0.2"/>
  <rect x="388" y="108" width="70" height="5" rx="2.5" fill="#fff" opacity="0.1"/>
  <rect x="388" y="122" width="76" height="5" rx="2.5" fill="#fff" opacity="0.1"/>
  <rect x="388" y="148" width="60" height="5" rx="2.5" fill="#fff" opacity="0.08"/>
  <rect x="388" y="162" width="50" height="5" rx="2.5" fill="#fff" opacity="0.08"/>
  <path d="M440 190l8 8 16-16" stroke="#D4A017" stroke-width="2.5" stroke-linecap="round" stroke-linejoin="round" fill="none"/>
</svg>
